<svg viewBox="0 0 695 355" fill="none" xmlns="http://www.w3.org/2000/svg">
<path d="M694.425 2.46729C694.683 1.68009 694.255 0.832725 693.467 0.574645C692.68 0.316566 691.833 0.745504 691.575 1.53271L694.425 2.46729ZM667.022 73.0357L665.604 72.547L667.022 73.0357ZM637.333 160.321L635.971 159.694L635.971 159.694L637.333 160.321ZM468.014 243.661L468.197 245.15L468.197 245.15L468.014 243.661ZM357.939 354.061C358.525 354.646 359.475 354.646 360.061 354.061L369.607 344.515C370.192 343.929 370.192 342.979 369.607 342.393C369.021 341.808 368.071 341.808 367.485 342.393L359 350.879L350.515 342.393C349.929 341.808 348.979 341.808 348.393 342.393C347.808 342.979 347.808 343.929 348.393 344.515L357.939 354.061ZM691.575 1.53271C687.66 13.4723 683.231 25.242 678.745 37.0273C674.263 48.803 669.721 60.5997 665.604 72.547L668.44 73.5244C672.538 61.633 677.059 49.8886 681.549 38.0945C686.035 26.31 690.487 14.4811 694.425 2.46729L691.575 1.53271ZM665.604 72.547C660.609 87.041 656.376 101.957 651.82 116.628C647.254 131.33 642.347 145.844 635.971 159.694L638.696 160.949C645.155 146.918 650.108 132.255 654.685 117.518C659.271 102.749 663.465 87.9631 668.44 73.5244L665.604 72.547ZM635.971 159.694C621.171 191.842 595.213 210.493 564.879 222.101C534.5 233.727 499.857 238.243 467.831 242.172L468.197 245.15C500.17 241.227 535.176 236.68 565.952 224.903C596.773 213.108 623.474 194.015 638.696 160.949L635.971 159.694ZM467.831 242.172C412.692 248.937 357.5 292.485 357.5 353H360.5C360.5 294.483 414.028 251.795 468.197 245.15L467.831 242.172Z" fill="url(#paint0_linear_33_47)"/>
<path d="M4.29417 13.1423C3.5443 12.1514 2.13315 11.956 1.14226 12.7058C0.151366 13.4557 -0.0440273 14.8669 0.705834 15.8577L4.29417 13.1423ZM5.99997 98.5L3.8016 98.0208L5.99997 98.5ZM34.027 159.094L35.214 157.182L34.027 159.094ZM189.371 176.079L189.406 178.329L189.371 176.079ZM388.358 208.643L387.383 210.671L388.358 208.643ZM0.705834 15.8577C7.21569 24.4601 9.40505 38.903 9.17134 54.5915C8.93968 70.1422 6.34375 86.3595 3.8016 98.0208L8.19834 98.9792C10.7792 87.1405 13.4332 70.6078 13.6708 54.6585C13.9064 38.847 11.7843 23.0399 4.29417 13.1423L0.705834 15.8577ZM3.8016 98.0208C-1.30821 121.46 7.23195 145.101 32.8399 161.005L35.214 157.182C11.1675 142.248 3.50833 120.493 8.19834 98.9792L3.8016 98.0208ZM32.8399 161.005C53.9457 174.113 81.1229 178.565 108.851 179.711C136.537 180.855 165.333 178.7 189.406 178.329L189.336 173.829C164.859 174.207 136.584 176.353 109.037 175.215C81.5312 174.078 55.3117 169.664 35.214 157.182L32.8399 161.005ZM189.406 178.329C260.469 177.233 326.012 181.17 387.383 210.671L389.332 206.615C326.966 176.635 260.526 172.732 189.336 173.829L189.406 178.329ZM387.383 210.671C397.684 215.623 408.362 221.372 416.449 228.394C424.527 235.408 429.75 243.448 429.75 253H434.25C434.25 241.619 427.979 232.445 419.399 224.996C410.829 217.555 399.686 211.592 389.332 206.615L387.383 210.671Z" fill="url(#paint1_linear_33_47)"/>
<defs>
<linearGradient id="paint0_linear_33_47" x1="526" y1="2" x2="526" y2="353" gradientUnits="userSpaceOnUse">
<stop offset="0.05" stop-color="#272727" stop-opacity="0"/>
<stop offset="0.65" stop-color="#272727"/>
</linearGradient>
<linearGradient id="paint1_linear_33_47" x1="221.5" y1="31" x2="221.5" y2="253" gradientUnits="userSpaceOnUse">
<stop offset="0.05" stop-color="#272727" stop-opacity="0"/>
<stop offset="0.65" stop-color="#272727"/>
</linearGradient>
</defs>
</svg>
